# xmcd
#
# Track frame offsets:
# 150
# 13093
# 26028
# 38291
# 49702
# 60339
# 70055
# 83750
# 94240
# 103907
#
# Disc length: 1594 seconds
#
#
# Revision: 0
# Processed by: cddbd v1.5.1PL2 Copyright (c) Steve Scherf et al.
# Submitted via: FreeRIP 2.945 
#
DISCID=7406380a
DTITLE=Gene Watson - Heartaches, Love and Stuff
DYEAR=1985
DGENRE=Country
TTITLE0=I Guess You Had to Be There
TTITLE1=One Hell Of A Heartache
TTITLE2=Got No Reason Now For Goin' Home
TTITLE3=Wino's Prayer
TTITLE4=Texas Saturday Night
TTITLE5=A Memory Away
TTITLE6=Independence Day
TTITLE7=Sailing Home To Me
TTITLE8=I Must Be Somebody Else
TTITLE9=That's When You Know It's Over
EXTD=
EXTT0=
EXTT1=
EXTT2=
EXTT3=
EXTT4=
EXTT5=
EXTT6=
EXTT7=
EXTT8=
EXTT9=
PLAYORDER=
